<mxfile host="65bd71144e">
    <diagram name="PÃ¡gina-1" id="lY3vdNquZrquK7TAqCNj">
        <mxGraphModel dx="1147" dy="595" grid="1" gridSize="10" guides="0" tooltips="1" connect="1" arrows="1" fold="1" page="1" pageScale="1" pageWidth="827" pageHeight="1169" math="0" shadow="0">
            <root>
                <mxCell id="0"/>
                <mxCell id="1" parent="0"/>
                <mxCell id="zkZmz97wDy052dGJJwyS-1" value="Empleado" style="swimlane;fontStyle=1;align=center;verticalAlign=top;childLayout=stackLayout;horizontal=1;startSize=26;horizontalStack=0;resizeParent=1;resizeParentMax=0;resizeLast=0;collapsible=1;marginBottom=0;whiteSpace=wrap;html=1;" parent="1" vertex="1">
                    <mxGeometry x="310" y="361" width="200" height="346" as="geometry"/>
                </mxCell>
                <mxCell id="zkZmz97wDy052dGJJwyS-2" value="-id: int&lt;div&gt;-salario: double&lt;/div&gt;&lt;div&gt;-maxHorasSemalaes: int&lt;/div&gt;&lt;div&gt;-altaSeguridadSocial: boolean&lt;/div&gt;&lt;div&gt;-altaSeguro: boolean&lt;/div&gt;" style="text;strokeColor=none;fillColor=none;align=left;verticalAlign=top;spacingLeft=4;spacingRight=4;overflow=hidden;rotatable=0;points=[[0,0.5],[1,0.5]];portConstraint=eastwest;whiteSpace=wrap;html=1;" parent="zkZmz97wDy052dGJJwyS-1" vertex="1">
                    <mxGeometry y="26" width="200" height="94" as="geometry"/>
                </mxCell>
                <mxCell id="zkZmz97wDy052dGJJwyS-3" value="" style="line;strokeWidth=1;fillColor=none;align=left;verticalAlign=middle;spacingTop=-1;spacingLeft=3;spacingRight=3;rotatable=0;labelPosition=right;points=[];portConstraint=eastwest;strokeColor=inherit;" parent="zkZmz97wDy052dGJJwyS-1" vertex="1">
                    <mxGeometry y="120" width="200" height="60" as="geometry"/>
                </mxCell>
                <mxCell id="zkZmz97wDy052dGJJwyS-4" value="&lt;div&gt;+datosEmpleado(): void&lt;/div&gt;&lt;div&gt;&lt;br&gt;&lt;/div&gt;&lt;div&gt;+ingresarDatos(): void&lt;/div&gt;&lt;div&gt;+mirarDatos(): void&lt;/div&gt;&lt;div&gt;+darDeAltaSeguridadSocial(): void&lt;/div&gt;&lt;div&gt;+darDeBajaSeguridadSocial(): void&lt;/div&gt;&lt;div&gt;+procesarDeAltaSeguro(): void&lt;/div&gt;&lt;div&gt;+procesarDeBajaSeguro(): void&lt;/div&gt;" style="text;strokeColor=none;fillColor=none;align=left;verticalAlign=top;spacingLeft=4;spacingRight=4;overflow=hidden;rotatable=0;points=[[0,0.5],[1,0.5]];portConstraint=eastwest;whiteSpace=wrap;html=1;" parent="zkZmz97wDy052dGJJwyS-1" vertex="1">
                    <mxGeometry y="180" width="200" height="166" as="geometry"/>
                </mxCell>
                <mxCell id="zkZmz97wDy052dGJJwyS-6" value="Diagrama de Empleado" style="text;html=1;align=center;verticalAlign=middle;resizable=0;points=[];autosize=1;strokeColor=none;fillColor=none;" parent="1" vertex="1">
                    <mxGeometry x="330" y="300" width="150" height="30" as="geometry"/>
                </mxCell>
            </root>
        </mxGraphModel>
    </diagram>
</mxfile>